{
    "accessors" : [
        {
            "bufferView" : 0, 
            "componentType" : 5121, 
            "count" : 192, 
            "max" : [
                127
            ], 
            "min" : [
                0
            ], 
            "type" : "SCALAR"
        }, 
        {
            "bufferView" : 1, 
            "componentType" : 5126, 
            "count" : 128, 
            "max" : [
                0.18000000715255737, 
                0.05000000074505806, 
                0.18000000715255737
            ], 
            "min" : [
                -0.18000000715255737, 
                -0.05000000074505806, 
                -0.18000000715255737
            ], 
            "type" : "VEC3"
        }, 
        {
            "bufferView" : 2, 
            "componentType" : 5126, 
            "count" : 128, 
            "max" : [
                0.9951846599578857, 
                0.0, 
                0.9951847195625305
            ], 
            "min" : [
                -0.9951848387718201, 
                0.0, 
                -0.9951848387718201
            ], 
            "type" : "VEC3"
        }, 
        {
            "bufferView" : 3, 
            "componentType" : 5126, 
            "count" : 128, 
            "max" : [
                0.9951847791671753, 
                0.0, 
                0.9951848983764648, 
                1.0
            ], 
            "min" : [
                -0.9951847791671753, 
                0.0, 
                -0.9951847791671753, 
                1.0
            ], 
            "type" : "VEC4"
        }, 
        {
            "bufferView" : 4, 
            "componentType" : 5126, 
            "count" : 128, 
            "max" : [
                1.0, 
                1.0
            ], 
            "min" : [
                0.0, 
                0.0
            ], 
            "type" : "VEC2"
        }
    ], 
    "asset" : {
        "generator" : "Khronos Blender glTF 2.0 exporter", 
        "version" : "2.0"
    }, 
    "bufferViews" : [
        {
            "buffer" : 0, 
            "byteLength" : 192, 
            "byteOffset" : 0, 
            "target" : 34963
        }, 
        {
            "buffer" : 0, 
            "byteLength" : 1536, 
            "byteOffset" : 192, 
            "target" : 34962
        }, 
        {
            "buffer" : 0, 
            "byteLength" : 1536, 
            "byteOffset" : 1728, 
            "target" : 34962
        }, 
        {
            "buffer" : 0, 
            "byteLength" : 2048, 
            "byteOffset" : 3264, 
            "target" : 34962
        }, 
        {
            "buffer" : 0, 
            "byteLength" : 1024, 
            "byteOffset" : 5312, 
            "target" : 34962
        }
    ], 
    "buffers" : [
        {
            "byteLength" : 6336, 
            "uri" : "laurels.bin"
        }
    ], 
    "images" : [
        {
            "uri" : "../img/caesar/laurels.png"
        }
    ], 
    "materials" : [
        {
            "alphaMode" : "BLEND", 
            "doubleSided" : true, 
            "name" : "Material.001", 
            "pbrMetallicRoughness" : {
                "baseColorTexture" : {
                    "index" : 0
                }
            }
        }
    ], 
    "meshes" : [
        {
            "name" : "Cylinder", 
            "primitives" : [
                {
                    "attributes" : {
                        "NORMAL" : 2, 
                        "POSITION" : 1, 
                        "TANGENT" : 3, 
                        "TEXCOORD_0" : 4
                    }, 
                    "indices" : 0, 
                    "material" : 0
                }
            ]
        }
    ], 
    "nodes" : [
        {
            "mesh" : 0, 
            "name" : "hat"
        }
    ], 
    "samplers" : [
        {}
    ], 
    "scene" : 0, 
    "scenes" : [
        {
            "name" : "Scene", 
            "nodes" : [
                0
            ]
        }
    ], 
    "textures" : [
        {
            "sampler" : 0, 
            "source" : 0
        }
    ]
}
