{
    "accessors" : [
        {
            "bufferView" : 0, 
            "componentType" : 5123, 
            "count" : 258, 
            "max" : [
                257
            ], 
            "min" : [
                0
            ], 
            "type" : "SCALAR"
        }, 
        {
            "bufferView" : 1, 
            "componentType" : 5126, 
            "count" : 258, 
            "max" : [
                1.0000001192092896, 
                2.9802322387695312e-08, 
                0.6980000734329224
            ], 
            "min" : [
                -0.9999999403953552, 
                -1.0000001192092896, 
                -0.697999894618988
            ], 
            "type" : "VEC3"
        }, 
        {
            "bufferView" : 2, 
            "componentType" : 5126, 
            "count" : 258, 
            "max" : [
                1.0, 
                1.0, 
                1.0
            ], 
            "min" : [
                -1.0, 
                -1.0, 
                -1.0
            ], 
            "type" : "VEC3"
        }, 
        {
            "bufferView" : 3, 
            "componentType" : 5126, 
            "count" : 258, 
            "max" : [
                0.9900002479553223, 
                1.0266384929418564
            ], 
            "min" : [
                -8.940696716308594e-08, 
                0.0
            ], 
            "type" : "VEC2"
        }, 
        {
            "bufferView" : 4, 
            "componentType" : 5126, 
            "count" : 258, 
            "max" : [
                0.9967126846313477, 
                0.9966555181890726
            ], 
            "min" : [
                0.0032873114105314016, 
                0.0033444762229919434
            ], 
            "type" : "VEC2"
        }
    ], 
    "asset" : {
        "generator" : "Khronos Blender glTF 2.0 exporter", 
        "version" : "2.0"
    }, 
    "bufferViews" : [
        {
            "buffer" : 0, 
            "byteLength" : 516, 
            "byteOffset" : 0, 
            "target" : 34963
        }, 
        {
            "buffer" : 0, 
            "byteLength" : 3096, 
            "byteOffset" : 516, 
            "target" : 34962
        }, 
        {
            "buffer" : 0, 
            "byteLength" : 3096, 
            "byteOffset" : 3612, 
            "target" : 34962
        }, 
        {
            "buffer" : 0, 
            "byteLength" : 2064, 
            "byteOffset" : 6708, 
            "target" : 34962
        }, 
        {
            "buffer" : 0, 
            "byteLength" : 2064, 
            "byteOffset" : 8772, 
            "target" : 34962
        }
    ], 
    "buffers" : [
        {
            "byteLength" : 10836, 
            "uri" : "table.bin"
        }
    ], 
    "images" : [
        {
            "uri" : "../img/board-lightmap.jpg"
        }
    ], 
    "materials" : [
        {
            "name" : "Material", 
            "pbrMetallicRoughness" : {
                "baseColorTexture": {
                    "index": 0
                },
                "baseColorFactor": [0.9372549019607843, 0.9215686274509803, 0.7607843137254902],
                "metallicFactor" : 0.0
            }
        }
    ], 
    "meshes" : [
        {
            "name" : "Cube", 
            "primitives" : [
                {
                    "attributes" : {
                        "NORMAL" : 2, 
                        "POSITION" : 1, 
                        "TEXCOORD_0" : 3, 
                        "TEXCOORD_1" : 4
                    }, 
                    "indices" : 0, 
                    "material" : 0
                }
            ]
        }
    ], 
    "nodes" : [
        {
            "mesh" : 0, 
            "name" : "Table"
        }
    ], 
    "samplers" : [
        {}
    ], 
    "scene" : 0, 
    "scenes" : [
        {
            "name" : "Scene", 
            "nodes" : [
                0
            ]
        }
    ], 
    "textures" : [
        {
            "sampler" : 0, 
            "source" : 0
        }
    ]
}
