{
    "accessors" : [
        {
            "bufferView" : 0, 
            "componentType" : 5123, 
            "count" : 25413, 
            "max" : [
                8910
            ], 
            "min" : [
                0
            ], 
            "type" : "SCALAR"
        }, 
        {
            "bufferView" : 1, 
            "componentType" : 5126, 
            "count" : 8911, 
            "max" : [
                0.16408328711986542, 
                0.06286675482988358, 
                0.008000022731721401
            ], 
            "min" : [
                -0.16361097991466522, 
                -0.014627017080783844, 
                -0.008000033907592297
            ], 
            "type" : "VEC3"
        }, 
        {
            "bufferView" : 2, 
            "componentType" : 5126, 
            "count" : 8911, 
            "max" : [
                0.999969482421875, 
                1.0, 
                1.0
            ], 
            "min" : [
                -0.999969482421875, 
                -1.0, 
                -1.0
            ], 
            "type" : "VEC3"
        }, 
        {
            "bufferView" : 3, 
            "componentType" : 5126, 
            "count" : 8911, 
            "max" : [
                0.9965165257453918, 
                1.0
            ], 
            "min" : [
                0.0, 
                0.003493189811706543
            ], 
            "type" : "VEC2"
        }, 
        {
            "bufferView" : 4, 
            "componentType" : 5123, 
            "count" : 2490, 
            "max" : [
                690
            ], 
            "min" : [
                0
            ], 
            "type" : "SCALAR"
        }, 
        {
            "bufferView" : 5, 
            "componentType" : 5126, 
            "count" : 691, 
            "max" : [
                0.11163749545812607, 
                0.14784590899944305, 
                0.14485159516334534
            ], 
            "min" : [
                -0.11163749545812607, 
                -2.3599319831646426e-08, 
                -0.14485159516334534
            ], 
            "type" : "VEC3"
        }, 
        {
            "bufferView" : 6, 
            "componentType" : 5126, 
            "count" : 691, 
            "max" : [
                0.7501449584960938, 
                1.0, 
                0.8063600659370422
            ], 
            "min" : [
                -0.7496871948242188, 
                -0.7358012795448303, 
                -0.8063600659370422
            ], 
            "type" : "VEC3"
        }, 
        {
            "bufferView" : 7, 
            "componentType" : 5126, 
            "count" : 691, 
            "max" : [
                0.9199128150939941, 
                0.8061926364898682, 
                0.9947702288627625, 
                1.0
            ], 
            "min" : [
                -0.7304710149765015, 
                -0.7334850430488586, 
                -0.999992311000824, 
                1.0
            ], 
            "type" : "VEC4"
        }, 
        {
            "bufferView" : 8, 
            "componentType" : 5126, 
            "count" : 691, 
            "max" : [
                0.9524480104446411, 
                0.9933190350420773
            ], 
            "min" : [
                0.009948967956006527, 
                0.006521999835968018
            ], 
            "type" : "VEC2"
        }
    ], 
    "asset" : {
        "generator" : "Khronos Blender glTF 2.0 exporter", 
        "version" : "2.0"
    }, 
    "bufferViews" : [
        {
            "buffer" : 0, 
            "byteLength" : 50826, 
            "byteOffset" : 0, 
            "target" : 34963
        }, 
        {
            "buffer" : 0, 
            "byteLength" : 106932, 
            "byteOffset" : 50828, 
            "target" : 34962
        }, 
        {
            "buffer" : 0, 
            "byteLength" : 106932, 
            "byteOffset" : 157760, 
            "target" : 34962
        }, 
        {
            "buffer" : 0, 
            "byteLength" : 71288, 
            "byteOffset" : 264692, 
            "target" : 34962
        }, 
        {
            "buffer" : 0, 
            "byteLength" : 4980, 
            "byteOffset" : 335980, 
            "target" : 34963
        }, 
        {
            "buffer" : 0, 
            "byteLength" : 8292, 
            "byteOffset" : 340960, 
            "target" : 34962
        }, 
        {
            "buffer" : 0, 
            "byteLength" : 8292, 
            "byteOffset" : 349252, 
            "target" : 34962
        }, 
        {
            "buffer" : 0, 
            "byteLength" : 11056, 
            "byteOffset" : 357544, 
            "target" : 34962
        }, 
        {
            "buffer" : 0, 
            "byteLength" : 5528, 
            "byteOffset" : 368600, 
            "target" : 34962
        }
    ], 
    "buffers" : [
        {
            "byteLength" : 374128, 
            "uri" : "tophat.bin"
        }
    ], 
    "images" : [
        {
            "uri" : "../img/tophat.jpg"
        }, 
        {
            "uri" : "../img/president.jpg"
        }
    ], 
    "materials" : [
        {
            "name" : "blinn1SG_001", 
            "pbrMetallicRoughness" : {
                "baseColorTexture" : {
                    "index" : 0
                }, 
                "metallicFactor" : 0.0
            }
        }, 
        {
            "name" : "Material", 
            "pbrMetallicRoughness" : {
                "baseColorTexture" : {
                    "index" : 1
                }, 
                "metallicFactor" : 0.0
            }
        }
    ], 
    "meshes" : [
        {
            "name" : "Mesh", 
            "primitives" : [
                {
                    "attributes" : {
                        "NORMAL" : 2, 
                        "POSITION" : 1, 
                        "TEXCOORD_0" : 3
                    }, 
                    "indices" : 0, 
                    "material" : 1
                }
            ]
        }, 
        {
            "name" : "tophat.001", 
            "primitives" : [
                {
                    "attributes" : {
                        "NORMAL" : 6, 
                        "POSITION" : 5, 
                        "TANGENT" : 7, 
                        "TEXCOORD_0" : 8
                    }, 
                    "indices" : 4, 
                    "material" : 0
                }
            ]
        }
    ], 
    "nodes" : [
        {
            "mesh" : 1, 
            "name" : "hat", 
            "translation" : [
                0.0, 
                0.0012012794613838196, 
                -0.0
            ]
        }, 
        {
            "mesh" : 0, 
            "name" : "text", 
            "translation" : [
                8.982754096109602e-09, 
                0.21653835475444794, 
                -0.05949009209871292
            ]
        }
    ], 
    "samplers" : [
        {}
    ], 
    "scene" : 0, 
    "scenes" : [
        {
            "name" : "Scene", 
            "nodes" : [
                1, 
                0
            ]
        }
    ], 
    "textures" : [
        {
            "sampler" : 0, 
            "source" : 0
        }, 
        {
            "sampler" : 0, 
            "source" : 1
        }
    ]
}
