{
    "accessors" : [
        {
            "bufferView" : 0, 
            "componentType" : 5123, 
            "count" : 27900, 
            "max" : [
                9735
            ], 
            "min" : [
                0
            ], 
            "type" : "SCALAR"
        }, 
        {
            "bufferView" : 1, 
            "componentType" : 5126, 
            "count" : 9736, 
            "max" : [
                0.17999564111232758, 
                0.06380422413349152, 
                0.006000010296702385
            ], 
            "min" : [
                -0.17873793840408325, 
                -0.01499079167842865, 
                -0.006000002380460501
            ], 
            "type" : "VEC3"
        }, 
        {
            "bufferView" : 2, 
            "componentType" : 5126, 
            "count" : 9736, 
            "max" : [
                0.999969482421875, 
                1.0, 
                1.0
            ], 
            "min" : [
                -0.999969482421875, 
                -0.999969482421875, 
                -1.0
            ], 
            "type" : "VEC3"
        }, 
        {
            "bufferView" : 3, 
            "componentType" : 5126, 
            "count" : 9736, 
            "max" : [
                0.996456503868103, 
                0.9964572698809206
            ], 
            "min" : [
                0.0035434660967439413, 
                0.003542661666870117
            ], 
            "type" : "VEC2"
        }, 
        {
            "bufferView" : 4, 
            "componentType" : 5123, 
            "count" : 1800, 
            "max" : [
                433
            ], 
            "min" : [
                0
            ], 
            "type" : "SCALAR"
        }, 
        {
            "bufferView" : 5, 
            "componentType" : 5126, 
            "count" : 434, 
            "max" : [
                0.15000000596046448, 
                0.03738602623343468, 
                0.14664708077907562
            ], 
            "min" : [
                -0.15000000596046448, 
                -0.11130201816558838, 
                -0.14790478348731995
            ], 
            "type" : "VEC3"
        }, 
        {
            "bufferView" : 6, 
            "componentType" : 5126, 
            "count" : 434, 
            "max" : [
                0.9911801218986511, 
                0.9776299595832825, 
                0.999664306640625
            ], 
            "min" : [
                -0.9911801218986511, 
                -0.9367656707763672, 
                -0.9840083122253418
            ], 
            "type" : "VEC3"
        }, 
        {
            "bufferView" : 7, 
            "componentType" : 5126, 
            "count" : 434, 
            "max" : [
                0.9876353740692139, 
                0.9854567591100931
            ], 
            "min" : [
                0.01018560491502285, 
                0.018497169017791748
            ], 
            "type" : "VEC2"
        }
    ], 
    "asset" : {
        "generator" : "Khronos Blender glTF 2.0 exporter", 
        "version" : "2.0"
    }, 
    "bufferViews" : [
        {
            "buffer" : 0, 
            "byteLength" : 55800, 
            "byteOffset" : 0, 
            "target" : 34963
        }, 
        {
            "buffer" : 0, 
            "byteLength" : 116832, 
            "byteOffset" : 55800, 
            "target" : 34962
        }, 
        {
            "buffer" : 0, 
            "byteLength" : 116832, 
            "byteOffset" : 172632, 
            "target" : 34962
        }, 
        {
            "buffer" : 0, 
            "byteLength" : 77888, 
            "byteOffset" : 289464, 
            "target" : 34962
        }, 
        {
            "buffer" : 0, 
            "byteLength" : 3600, 
            "byteOffset" : 367352, 
            "target" : 34963
        }, 
        {
            "buffer" : 0, 
            "byteLength" : 5208, 
            "byteOffset" : 370952, 
            "target" : 34962
        }, 
        {
            "buffer" : 0, 
            "byteLength" : 5208, 
            "byteOffset" : 376160, 
            "target" : 34962
        }, 
        {
            "buffer" : 0, 
            "byteLength" : 3472, 
            "byteOffset" : 381368, 
            "target" : 34962
        }
    ], 
    "buffers" : [
        {
            "byteLength" : 384840, 
            "uri" : "visor_cap.bin"
        }
    ], 
    "images" : [
        {
            "uri" : "../img/chancellor.jpg"
        }, 
        {
            "uri" : "../img/visor_hat.jpg"
        }
    ], 
    "materials" : [
        {
            "name" : "Material", 
            "pbrMetallicRoughness" : {
                "baseColorTexture" : {
                    "index" : 0
                }, 
                "metallicFactor" : 0.0
            }
        }, 
        {
            "name" : "Material.001", 
            "pbrMetallicRoughness" : {
                "baseColorTexture" : {
                    "index" : 1
                }, 
                "metallicFactor" : 0.0
            }
        }
    ], 
    "meshes" : [
        {
            "name" : "Mesh", 
            "primitives" : [
                {
                    "attributes" : {
                        "NORMAL" : 2, 
                        "POSITION" : 1, 
                        "TEXCOORD_0" : 3
                    }, 
                    "indices" : 0, 
                    "material" : 0
                }
            ]
        }, 
        {
            "name" : "Circle", 
            "primitives" : [
                {
                    "attributes" : {
                        "NORMAL" : 6, 
                        "POSITION" : 5, 
                        "TEXCOORD_0" : 7
                    }, 
                    "indices" : 4, 
                    "material" : 1
                }
            ]
        }
    ], 
    "nodes" : [
        {
            "mesh" : 1, 
            "name" : "hat", 
            "rotation" : [
                0.0, 
                1.0, 
                -0.0, 
                -7.549790126404332e-08
            ], 
            "translation" : [
                0.0, 
                0.11427244544029236, 
                -0.0
            ]
        }, 
        {
            "mesh" : 0, 
            "name" : "text", 
            "rotation" : [
                0.0, 
                1.0, 
                -0.0, 
                -7.549790126404332e-08
            ], 
            "translation" : [
                -1.2967507956318514e-08, 
                0.23679985105991364, 
                -0.08587992191314697
            ]
        }
    ], 
    "samplers" : [
        {}
    ], 
    "scene" : 0, 
    "scenes" : [
        {
            "name" : "Scene", 
            "nodes" : [
                0, 
                1
            ]
        }
    ], 
    "textures" : [
        {
            "sampler" : 0, 
            "source" : 0
        }, 
        {
            "sampler" : 0, 
            "source" : 1
        }
    ]
}
