{
    "accessors" : [
        {
            "bufferView" : 0, 
            "componentType" : 5123, 
            "count" : 1800, 
            "max" : [
                1209
            ], 
            "min" : [
                0
            ], 
            "type" : "SCALAR"
        }, 
        {
            "bufferView" : 1, 
            "componentType" : 5126, 
            "count" : 1210, 
            "max" : [
                0.15000000596046448, 
                0.03738602623343468, 
                0.14664708077907562
            ], 
            "min" : [
                -0.15000000596046448, 
                -0.11130201816558838, 
                -0.14790478348731995
            ], 
            "type" : "VEC3"
        }, 
        {
            "bufferView" : 2, 
            "componentType" : 5126, 
            "count" : 1210, 
            "max" : [
                1.0, 
                0.9776471853256226, 
                0.9951849579811096
            ], 
            "min" : [
                -1.0, 
                -0.9997326135635376, 
                -0.9951845407485962
            ], 
            "type" : "VEC3"
        }, 
        {
            "bufferView" : 3, 
            "componentType" : 5126, 
            "count" : 1210, 
            "max" : [
                0.9876353740692139, 
                0.9854567591100931
            ], 
            "min" : [
                0.01018560491502285, 
                0.018497169017791748
            ], 
            "type" : "VEC2"
        }, 
        {
            "bufferView" : 4, 
            "componentType" : 5123, 
            "count" : 27900, 
            "max" : [
                9759
            ], 
            "min" : [
                0
            ], 
            "type" : "SCALAR"
        }, 
        {
            "bufferView" : 5, 
            "componentType" : 5126, 
            "count" : 9760, 
            "max" : [
                0.17999564111232758, 
                0.006000000052154064, 
                0.014990790747106075
            ], 
            "min" : [
                -0.17873793840408325, 
                -0.006000000052154064, 
                -0.06380422413349152
            ], 
            "type" : "VEC3"
        }, 
        {
            "bufferView" : 6, 
            "componentType" : 5126, 
            "count" : 9760, 
            "max" : [
                0.999969482421875, 
                1.0, 
                0.999969482421875
            ], 
            "min" : [
                -0.999969482421875, 
                -1.0, 
                -1.0
            ], 
            "type" : "VEC3"
        }, 
        {
            "bufferView" : 7, 
            "componentType" : 5126, 
            "count" : 9760, 
            "max" : [
                0.996456503868103, 
                0.9964572698809206
            ], 
            "min" : [
                0.0035434660967439413, 
                0.003542661666870117
            ], 
            "type" : "VEC2"
        }
    ], 
    "asset" : {
        "generator" : "Khronos Blender glTF 2.0 exporter", 
        "version" : "2.0"
    }, 
    "bufferViews" : [
        {
            "buffer" : 0, 
            "byteLength" : 3600, 
            "byteOffset" : 0, 
            "target" : 34963
        }, 
        {
            "buffer" : 0, 
            "byteLength" : 14520, 
            "byteOffset" : 3600, 
            "target" : 34962
        }, 
        {
            "buffer" : 0, 
            "byteLength" : 14520, 
            "byteOffset" : 18120, 
            "target" : 34962
        }, 
        {
            "buffer" : 0, 
            "byteLength" : 9680, 
            "byteOffset" : 32640, 
            "target" : 34962
        }, 
        {
            "buffer" : 0, 
            "byteLength" : 55800, 
            "byteOffset" : 42320, 
            "target" : 34963
        }, 
        {
            "buffer" : 0, 
            "byteLength" : 117120, 
            "byteOffset" : 98120, 
            "target" : 34962
        }, 
        {
            "buffer" : 0, 
            "byteLength" : 117120, 
            "byteOffset" : 215240, 
            "target" : 34962
        }, 
        {
            "buffer" : 0, 
            "byteLength" : 78080, 
            "byteOffset" : 332360, 
            "target" : 34962
        }
    ], 
    "buffers" : [
        {
            "byteLength" : 410440, 
            "uri" : "visor_cap.bin"
        }
    ], 
    "images" : [
        {
            "uri" : "../img/chancellor.jpg"
        }, 
        {
            "uri" : "../img/visor_hat.jpg"
        }
    ], 
    "materials" : [
        {
            "name" : "Material", 
            "pbrMetallicRoughness" : {
                "baseColorTexture" : {
                    "index" : 0
                }, 
                "metallicFactor" : 0.0
            }
        }, 
        {
            "name" : "Material.001", 
            "pbrMetallicRoughness" : {
                "baseColorTexture" : {
                    "index" : 1
                }, 
                "metallicFactor" : 0.0
            }
        }
    ], 
    "meshes" : [
        {
            "name" : "Circle", 
            "primitives" : [
                {
                    "attributes" : {
                        "NORMAL" : 2, 
                        "POSITION" : 1, 
                        "TEXCOORD_0" : 3
                    }, 
                    "indices" : 0, 
                    "material" : 1
                }
            ]
        }, 
        {
            "name" : "Mesh", 
            "primitives" : [
                {
                    "attributes" : {
                        "NORMAL" : 6, 
                        "POSITION" : 5, 
                        "TEXCOORD_0" : 7
                    }, 
                    "indices" : 4, 
                    "material" : 0
                }
            ]
        }
    ], 
    "nodes" : [
        {
            "children" : [
                1, 
                2
            ], 
            "name" : "chancellor_hat"
        }, 
        {
            "mesh" : 0, 
            "name" : "hat", 
            "translation" : [
                0.0, 
                0.11427244544029236, 
                -0.0
            ]
        }, 
        {
            "mesh" : 1, 
            "name" : "text", 
            "rotation" : [
                0.7071068286895752, 
                0.0, 
                -0.0, 
                0.7071068286895752
            ], 
            "translation" : [
                0.0, 
                0.23679985105991364, 
                0.08587992191314697
            ]
        }
    ], 
    "samplers" : [
        {}
    ], 
    "scene" : 0, 
    "scenes" : [
        {
            "name" : "Scene", 
            "nodes" : [
                0
            ]
        }
    ], 
    "textures" : [
        {
            "sampler" : 0, 
            "source" : 0
        }, 
        {
            "sampler" : 0, 
            "source" : 1
        }
    ]
}
